<svg width="300" height="300" viewBox="0 0 300 300" fill="none" xmlns="http://www.w3.org/2000/svg">
<path d="M264.943 98.6435C264.378 98.0269 263.777 97.411 263.177 96.831C262.576 96.2503 262.011 95.5979 261.41 95.0179C260.81 94.4379 260.244 93.7855 259.643 93.2048C259.043 92.6248 258.478 91.9724 257.877 91.3924C257.277 90.8124 256.712 90.1593 256.111 89.5793C255.51 88.9993 254.945 88.3469 254.344 87.7669C253.744 87.1869 253.179 86.5338 252.578 85.9538C270.101 103.628 280.141 127.671 280.523 152.883C280.523 212.959 221.101 261.832 148.041 261.832C107.131 261.832 70.5304 246.496 46.1893 222.459L47.9557 224.271L49.7222 226.084L51.4886 227.897L53.255 229.71L55.0214 231.522L56.7879 233.335L58.5543 235.148C82.86 260.201 120.273 276.335 162.172 276.335C235.232 276.335 294.654 227.461 294.654 167.566C294.654 141.97 283.915 117.714 264.943 98.6435Z" fill="black"/>
<path d="M271.69 152.883C271.69 208.028 216.331 252.732 148.041 252.732C79.7511 252.732 24.3916 208.028 24.3916 152.883C24.3916 118.693 45.5886 88.4917 78.1614 70.5814C110.735 52.6708 131.013 34.3251 148.041 34.3251C165.07 34.3251 179.625 49.2989 217.921 70.5814C250.494 88.4917 271.69 118.693 271.69 152.883Z" fill="#FBF0DF"/>
<path d="M271.69 152.883C271.673 145.799 270.723 138.75 268.864 131.927C259.219 252.659 115.716 258.461 59.2961 222.35C84.6586 242.523 115.956 253.239 148.041 252.732C216.225 252.732 271.69 207.956 271.69 152.883Z" fill="#F6DECE"/>
<path d="M100.454 63.9464C116.246 54.2298 137.23 35.9929 157.863 35.9567C154.688 34.9038 151.377 34.3536 148.041 34.3251C139.492 34.3251 130.377 38.8572 118.895 45.6733C114.903 48.0662 110.77 50.7129 106.389 53.4684C98.1573 58.6892 88.7248 64.599 78.1262 70.509C44.4935 89.1807 24.3916 119.962 24.3916 152.883C24.3916 154.333 24.3916 155.783 24.3916 157.197C45.8006 79.5731 84.6973 73.6628 100.454 63.9464Z" fill="#FFFEFC"/>
<path fill-rule="evenodd" clip-rule="evenodd" d="M137.866 43.4979C137.916 52.0588 136.165 60.5298 132.732 68.3325C129.299 76.1352 124.266 83.0855 117.977 88.7097C116.988 89.6159 117.765 91.3559 119.037 90.8483C130.942 86.0986 147.017 71.8862 140.234 43.2079C139.951 41.5763 137.866 42.0115 137.866 43.4979ZM145.886 43.4979C150.209 50.7362 152.955 58.8482 153.937 67.2777C154.919 75.7076 154.112 84.2552 151.574 92.3352C151.15 93.6041 152.669 94.6917 153.517 93.64C161.254 83.4883 168.001 63.3301 147.794 41.5763C146.769 40.6337 145.179 42.0839 145.886 43.3529V43.4979ZM155.637 42.8816C162.406 47.7999 168.069 54.1508 172.243 61.506C176.419 68.8612 179.008 77.0497 179.837 85.5186C179.801 85.8241 179.881 86.1317 180.06 86.3779C180.239 86.6241 180.504 86.7903 180.799 86.8414C181.095 86.8924 181.398 86.8255 181.646 86.6531C181.895 86.4814 182.069 86.2179 182.133 85.9179C185.383 73.2641 183.546 51.6918 156.803 40.4887C155.39 39.9086 154.471 41.8664 155.637 42.7366V42.8816ZM90.4207 80.5883C98.4725 78.1193 105.928 73.9372 112.301 68.3155C118.675 62.6934 123.822 55.7568 127.409 47.9575C128.046 46.6522 130.059 47.1598 129.741 48.6101C123.629 77.6152 103.174 83.6697 90.4559 82.8724C89.1131 82.9083 89.149 80.9869 90.4207 80.5883Z" fill="#CCBEA7"/>
<path d="M148.041 261.832C74.9821 261.832 15.5596 212.959 15.5596 152.883C15.5596 116.627 37.3925 82.7993 73.9573 62.5324C84.5559 56.7315 93.6352 50.8942 101.726 45.7821C106.177 42.9541 110.381 40.3074 114.444 37.842C126.844 30.3007 137.443 25.2611 148.041 25.2611C158.64 25.2611 167.896 29.6118 179.484 36.6455C183.017 38.7121 186.549 40.96 190.329 43.4255C199.126 49.0089 209.053 55.3175 222.125 62.5324C258.69 82.7993 280.523 116.59 280.523 152.883C280.523 212.959 221.101 261.832 148.041 261.832ZM148.041 34.3251C139.492 34.3251 130.377 38.8572 118.895 45.6733C114.903 48.0662 110.77 50.7129 106.389 53.4684C98.1573 58.6893 88.7249 64.599 78.1263 70.509C44.4936 89.1807 24.3916 119.962 24.3916 152.883C24.3916 207.956 79.8573 252.769 148.041 252.769C216.225 252.769 271.69 207.956 271.69 152.883C271.69 119.962 251.589 89.1807 217.921 70.5814C204.567 63.3301 194.145 56.5139 185.701 51.148C181.85 48.7188 178.318 46.471 175.103 44.4768C164.398 37.9508 156.59 34.3251 148.041 34.3251Z" fill="black"/>
<path d="M172.948 179.35C171.361 186.021 167.748 192.001 162.632 196.426C158.79 200.248 153.818 202.646 148.5 203.243C143.023 202.741 137.876 200.336 133.91 196.426C128.845 191.98 125.284 186.002 123.735 179.35C123.683 178.955 123.721 178.553 123.845 178.175C123.968 177.797 124.174 177.454 124.447 177.17C124.719 176.887 125.052 176.671 125.419 176.54C125.785 176.409 126.176 176.366 126.561 176.413H170.157C170.539 176.371 170.926 176.419 171.288 176.553C171.65 176.687 171.978 176.903 172.247 177.186C172.515 177.469 172.718 177.81 172.839 178.186C172.961 178.56 172.998 178.958 172.948 179.35Z" fill="#B71422"/>
<path d="M133.91 196.717C137.868 200.628 142.996 203.056 148.465 203.605C153.921 203.048 159.037 200.621 162.985 196.717C164.248 195.508 165.428 194.212 166.518 192.837C164.341 190.303 161.683 188.253 158.706 186.813C155.729 185.372 152.497 184.572 149.207 184.462C145.687 184.548 142.241 185.51 139.163 187.266C136.086 189.021 133.471 191.518 131.543 194.541C132.355 195.303 133.062 196.028 133.91 196.717Z" fill="#FF6164"/>
<path d="M134.475 193.852C136.226 191.529 138.468 189.643 141.032 188.337C143.597 187.031 146.415 186.338 149.278 186.311C154.568 186.471 159.609 188.657 163.409 192.438C164.221 191.532 164.999 190.589 165.741 189.646C161.246 185.254 155.307 182.756 149.101 182.649C145.785 182.679 142.516 183.461 139.529 184.94C136.542 186.419 133.911 188.559 131.826 191.206C132.661 192.137 133.546 193.021 134.475 193.852Z" fill="black"/>
<path d="M148.359 205.418C142.472 204.889 136.932 202.333 132.638 198.167C127.169 193.42 123.32 187.006 121.651 179.857C121.531 179.221 121.552 178.566 121.71 177.938C121.869 177.311 122.163 176.728 122.57 176.232C123.054 175.632 123.665 175.153 124.357 174.833C125.049 174.512 125.803 174.359 126.561 174.383H170.157C170.915 174.366 171.666 174.524 172.357 174.844C173.048 175.163 173.659 175.638 174.149 176.232C174.552 176.73 174.84 177.314 174.993 177.941C175.146 178.569 175.159 179.224 175.032 179.857C173.363 187.006 169.514 193.42 164.045 198.167C159.76 202.326 154.234 204.881 148.359 205.418ZM126.561 178.588C125.996 178.588 125.855 178.842 125.819 178.914C127.313 185.113 130.691 190.663 135.464 194.759C138.955 198.288 143.492 200.521 148.359 201.103C153.213 200.527 157.746 198.322 161.254 194.831C166.012 190.728 169.377 185.18 170.863 178.988C170.786 178.871 170.679 178.779 170.555 178.722C170.43 178.664 170.292 178.643 170.157 178.661L126.561 178.588Z" fill="black"/>
<path d="M201.811 181.598C213.226 181.598 222.478 176.014 222.478 169.126C222.478 162.237 213.226 156.653 201.811 156.653C190.397 156.653 181.144 162.237 181.144 169.126C181.144 176.014 190.397 181.598 201.811 181.598Z" fill="#FEBBD0"/>
<path d="M94.8717 181.598C106.286 181.598 115.539 176.014 115.539 169.126C115.539 162.237 106.286 156.653 94.8717 156.653C83.4579 156.653 74.2048 162.237 74.2048 169.126C74.2048 176.014 83.4579 181.598 94.8717 181.598Z" fill="#FEBBD0"/>
<path fill-rule="evenodd" clip-rule="evenodd" d="M104.587 164.122C108.439 164.13 112.205 162.964 115.412 160.773C118.617 158.582 121.118 155.465 122.596 151.815C124.075 148.166 124.466 144.148 123.719 140.27C122.972 136.392 121.121 132.83 118.399 130.032C115.679 127.234 112.21 125.328 108.433 124.554C104.656 123.781 100.741 124.174 97.1813 125.685C93.6227 127.196 90.5799 129.757 88.4399 133.043C86.2993 136.328 85.1565 140.192 85.1565 144.145C85.1565 149.437 87.2027 154.513 90.8455 158.258C94.4882 162.003 99.4303 164.112 104.587 164.122ZM192.096 164.122C195.952 164.151 199.729 163.003 202.949 160.826C206.168 158.648 208.685 155.539 210.181 151.891C211.675 148.243 212.081 144.222 211.346 140.337C210.611 136.452 208.768 132.879 206.052 130.071C203.335 127.263 199.867 125.346 196.087 124.563C192.307 123.781 188.386 124.168 184.821 125.675C181.256 127.183 178.207 129.743 176.062 133.032C173.916 136.32 172.771 140.188 172.771 144.145C172.761 149.421 174.79 154.486 178.412 158.23C182.034 161.975 186.954 164.093 192.096 164.122Z" fill="black"/>
<path fill-rule="evenodd" clip-rule="evenodd" d="M98.5814 145.414C100.029 145.421 101.447 144.987 102.654 144.167C103.861 143.346 104.804 142.177 105.363 140.806C105.922 139.436 106.072 137.926 105.794 136.467C105.515 135.009 104.821 133.668 103.8 132.615C102.779 131.562 101.476 130.843 100.057 130.551C98.6366 130.259 97.1648 130.405 95.8262 130.972C94.4883 131.539 93.3442 132.501 92.5386 133.736C91.7338 134.97 91.3035 136.423 91.3035 137.909C91.3035 139.893 92.069 141.797 93.4331 143.203C94.7973 144.61 96.6483 145.404 98.5814 145.414ZM186.09 145.414C187.538 145.421 188.955 144.987 190.162 144.167C191.37 143.346 192.312 142.177 192.872 140.806C193.43 139.436 193.58 137.926 193.302 136.467C193.024 135.009 192.33 133.668 191.309 132.615C190.288 131.562 188.985 130.843 187.565 130.551C186.146 130.259 184.673 130.405 183.335 130.972C181.997 131.539 180.852 132.501 180.047 133.736C179.242 134.97 178.812 136.423 178.812 137.909C178.812 139.881 179.568 141.773 180.917 143.178C182.266 144.582 184.098 145.386 186.019 145.414H186.09Z" fill="white"/>
</svg>
