<svg width="128" height="128" viewBox="0 0 128 128" fill="none" xmlns="http://www.w3.org/2000/svg">
<rect width="128" height="128" fill="white"/>
<path d="M27.3104 66.5138C27.3104 69.4465 27.0753 70.4018 26.4707 71.1056C25.7978 71.7102 24.9242 72.0446 24.0187 72.0441L24.2538 73.7199C25.6577 73.7389 27.0198 73.244 28.0829 72.329C28.6549 71.6329 29.0806 70.829 29.3345 69.9653C29.5884 69.1015 29.6654 68.1955 29.5608 67.3014V56.2073H27.3104V66.4467V66.5138Z" fill="#4E4E4E"/>
<path d="M44.0935 65.1919C44.0935 66.4488 44.0935 67.5716 44.1942 68.5436H42.1957L42.0614 66.5493C41.6434 67.2549 41.0456 67.8375 40.3288 68.2378C39.6119 68.6382 38.8017 68.842 37.9804 68.8285C36.0323 68.8285 33.7146 67.7727 33.7146 63.4658V56.3099H35.9651V63.0133C35.9651 65.3427 36.6872 66.9013 38.7193 66.9013C39.1374 66.9058 39.5522 66.8269 39.9393 66.6693C40.3264 66.5117 40.6781 66.2786 40.9738 65.9836C41.2694 65.6885 41.5031 65.3376 41.661 64.9513C41.8189 64.565 41.8979 64.1511 41.8934 63.7339V56.2261H44.1439V65.1249L44.0935 65.1919Z" fill="#4E4E4E"/>
<path d="M48.3592 60.2968C48.3592 58.7382 48.3592 57.4646 48.2584 56.3082H50.2738L50.3745 58.403C50.8235 57.6462 51.4699 57.0252 52.2448 56.6061C53.0197 56.187 53.894 55.9856 54.7746 56.0233C57.764 56.0233 60.0144 58.5204 60.0144 62.2408C60.0144 66.6315 57.3105 68.8101 54.3883 68.8101C53.6404 68.8434 52.8965 68.6835 52.2286 68.3459C51.5608 68.0083 50.9916 67.5043 50.576 66.8829V73.5863H48.3592V60.347V60.2968ZM50.576 63.5647C50.5821 63.8688 50.6159 64.1717 50.6768 64.4696C50.8674 65.2138 51.3011 65.8732 51.9095 66.3437C52.5178 66.8142 53.266 67.0688 54.0357 67.0672C56.4036 67.0672 57.7976 65.14 57.7976 62.3413C57.7976 59.8946 56.4876 57.7997 54.1196 57.7997C53.1825 57.8763 52.3056 58.2913 51.6532 58.967C51.0009 59.6427 50.6179 60.5326 50.576 61.4699V63.5647Z" fill="#4E4E4E"/>
<path d="M64.0241 56.2968L66.7279 63.5198C67.0134 64.3242 67.3157 65.2962 67.5173 66.0168C67.7524 65.2794 68.0043 64.3409 68.3066 63.4695L70.7585 56.2968H73.1265L69.7677 65.0113C68.0883 69.2009 67.0638 71.3627 65.5187 72.6699C64.7405 73.3792 63.7917 73.8757 62.7645 74.1111L62.2103 72.2342C62.9285 71.9987 63.5954 71.629 64.1752 71.1449C64.9945 70.4786 65.6447 69.6288 66.0729 68.6646C66.1646 68.4976 66.2271 68.3163 66.2577 68.1283C66.2386 67.9261 66.1876 67.7282 66.1065 67.5418L61.5385 56.2633H63.9905L64.0241 56.2968Z" fill="#4E4E4E"/>
<path d="M79.1008 52.7812V56.3005H82.3253V57.9764H79.1008V64.5793C79.1008 66.0875 79.5374 66.959 80.7802 66.959C81.2216 66.9662 81.662 66.9155 82.0902 66.8081L82.1909 68.484C81.5489 68.7059 80.8715 68.8082 80.1924 68.7857C79.7427 68.8137 79.2922 68.7444 78.8719 68.5824C78.4515 68.4204 78.0713 68.1696 77.7572 67.8472C77.0732 66.9342 76.7611 65.7964 76.884 64.6631V57.9596H74.9694V56.2838H76.9175V53.3008L79.1008 52.7812Z" fill="#4E4E4E"/>
<path d="M86.4707 62.8123C86.4251 63.3807 86.5038 63.9521 86.7012 64.4872C86.8986 65.0222 87.2101 65.5081 87.6141 65.9113C88.0181 66.3145 88.505 66.6253 89.0412 66.8223C89.5774 67.0192 90.1501 67.0977 90.7197 67.0522C91.8717 67.0779 93.0162 66.8609 94.0785 66.4154L94.4648 68.0912C93.1612 68.6271 91.7595 68.884 90.3502 68.8454C89.5286 68.9015 88.7046 68.7796 87.9347 68.4881C87.1647 68.1966 86.4671 67.7424 85.8896 67.1566C85.3121 66.5707 84.8684 65.8672 84.5889 65.0942C84.3095 64.3212 84.2009 63.497 84.2707 62.6782C84.2707 58.9914 86.4707 56.0754 90.0647 56.0754C94.0953 56.0754 95.103 59.5947 95.103 61.8403C95.1245 62.1863 95.1245 62.5333 95.103 62.8794H86.4204L86.4707 62.8123ZM93.0541 61.1365C93.1189 60.6884 93.0867 60.2317 92.9597 59.7971C92.8327 59.3626 92.6138 58.9602 92.3178 58.6171C92.0217 58.2741 91.6555 57.9984 91.2437 57.8085C90.8318 57.6187 90.384 57.5192 89.9303 57.5166C89.0076 57.5833 88.1431 57.9914 87.5062 58.661C86.8693 59.3306 86.506 60.2134 86.4875 61.1365H93.0541Z" fill="#4E4E4E"/>
<path d="M98.5175 60.1078C98.5175 58.6666 98.5175 57.4264 98.4168 56.2868H100.432V58.6833H100.533C100.744 57.9437 101.181 57.2881 101.783 56.8076C102.385 56.3271 103.122 56.0455 103.892 56.0019C104.104 55.9742 104.318 55.9742 104.53 56.0019V58.0968C104.273 58.0671 104.014 58.0671 103.757 58.0968C102.995 58.1262 102.269 58.4316 101.716 58.9559C101.163 59.4802 100.82 60.1875 100.751 60.9457C100.688 61.2886 100.655 61.6362 100.65 61.9847V68.5038H98.4336V60.1245L98.5175 60.1078Z" fill="#4E4E4E"/>
<path d="M97.5313 22.6364C97.6003 23.7623 97.3318 24.8831 96.7602 25.8562C96.1885 26.8292 95.3395 27.6105 94.3213 28.1004C93.3032 28.5903 92.1619 28.7666 91.0429 28.607C89.9239 28.4474 88.8779 27.959 88.0381 27.204C87.1983 26.4491 86.6026 25.4617 86.3271 24.3678C86.0516 23.2739 86.1086 22.1229 86.491 21.0614C86.8733 19.9999 87.5637 19.0761 88.474 18.4075C89.3844 17.7389 90.4736 17.3559 91.6029 17.3072C92.3433 17.2665 93.0845 17.3723 93.7838 17.6185C94.4831 17.8647 95.1267 18.2464 95.6777 18.7416C96.2286 19.2369 96.676 19.836 96.9941 20.5044C97.3122 21.1728 97.4948 21.8974 97.5313 22.6364Z" fill="#767677"/>
<path d="M64.323 88.268C49.2083 88.268 35.924 82.855 29.0551 74.8612C31.7203 82.0526 36.5292 88.2566 42.8346 92.6382C49.14 97.0199 56.6394 99.3687 64.323 99.3687C72.0067 99.3687 79.5059 97.0199 85.8115 92.6382C92.1169 88.2566 96.9258 82.0526 99.591 74.8612C92.739 82.855 79.505 88.268 64.323 88.268Z" fill="#F37726"/>
<path d="M64.323 36.2864C79.4378 36.2864 92.7222 41.6994 99.591 49.6931C96.9258 42.5018 92.1169 36.2978 85.8115 31.9162C79.5059 27.5346 72.0067 25.1857 64.323 25.1857C56.6394 25.1857 49.14 27.5346 42.8346 31.9162C36.5292 36.2978 31.7203 42.5018 29.0551 49.6931C35.924 41.6826 49.1411 36.2864 64.323 36.2864Z" fill="#F37726"/>
<path d="M43.5157 103.824C43.6043 105.242 43.2679 106.655 42.5493 107.881C41.8307 109.108 40.7624 110.093 39.4806 110.712C38.1987 111.33 36.7613 111.554 35.3516 111.355C33.9418 111.155 32.6235 110.542 31.5645 109.592C30.5056 108.642 29.754 107.399 29.4055 106.021C29.0569 104.644 29.1273 103.194 29.6076 101.856C30.0878 100.519 30.9563 99.3539 32.1022 98.5106C33.2482 97.6673 34.6198 97.1835 36.0422 97.1208C36.9741 97.0711 37.9066 97.2051 38.7866 97.5151C39.6666 97.8251 40.4767 98.305 41.1707 98.9275C41.8647 99.55 42.429 100.303 42.8314 101.143C43.2337 101.983 43.4663 102.894 43.5157 103.824Z" fill="#9E9E9E"/>
<path d="M30.773 34.4647C29.9585 34.4871 29.1556 34.2688 28.4652 33.8371C27.7748 33.4054 27.2277 32.7796 26.8928 32.0385C26.5578 31.2974 26.4499 30.474 26.5827 29.6718C26.7155 28.8697 27.083 28.1246 27.639 27.5303C28.195 26.936 28.9147 26.5191 29.7075 26.3319C30.5004 26.1446 31.331 26.1955 32.095 26.4781C32.8589 26.7608 33.522 27.2625 34.001 27.9201C34.48 28.5779 34.7533 29.3622 34.7868 30.1745C34.8186 31.2729 34.415 32.3395 33.6635 33.1428C32.912 33.946 31.8733 34.421 30.773 34.4647Z" fill="#616262"/>
</svg>
