<svg width="158" height="158" viewBox="0 0 158 158" fill="none" xmlns="http://www.w3.org/2000/svg">
<rect width="158" height="158" fill="white"/>
<g clip-path="url(#clip0_33_43)">
<path d="M129.48 104.382L112.807 121.801C112.444 122.18 112.006 122.482 111.519 122.688C111.031 122.894 110.505 123 109.974 123H30.9356C30.5585 123 30.1896 122.893 29.8742 122.691C29.5588 122.49 29.3107 122.203 29.1604 121.866C29.0101 121.529 28.9641 121.157 29.028 120.795C29.092 120.432 29.2631 120.096 29.5204 119.828L46.2061 102.408C46.5676 102.031 47.0047 101.729 47.4904 101.523C47.9762 101.317 48.5002 101.21 49.0301 101.21H128.064C128.441 101.21 128.81 101.317 129.126 101.518C129.441 101.72 129.689 102.007 129.84 102.344C129.99 102.681 130.036 103.053 129.972 103.415C129.908 103.777 129.737 104.113 129.48 104.382ZM112.807 69.3032C112.444 68.9248 112.006 68.6231 111.519 68.4169C111.031 68.2108 110.505 68.1045 109.974 68.1048H30.9356C30.5585 68.1048 30.1896 68.2121 29.8742 68.4136C29.5588 68.6151 29.3107 68.9019 29.1604 69.2388C29.0101 69.5758 28.9641 69.9482 29.028 70.3103C29.092 70.6723 29.2631 71.0083 29.5204 71.277L46.2061 88.6968C46.5676 89.0742 47.0047 89.3752 47.4904 89.5814C47.9762 89.7875 48.5002 89.8944 49.0301 89.8952H128.064C128.441 89.8952 128.81 89.7879 129.126 89.5864C129.441 89.3849 129.689 89.0981 129.84 88.7612C129.99 88.4242 130.036 88.0518 129.972 87.6897C129.908 87.3277 129.737 86.9917 129.48 86.723L112.807 69.3032ZM30.9356 56.7905H109.974C110.505 56.7907 111.031 56.6845 111.519 56.4783C112.006 56.2721 112.444 55.9704 112.807 55.592L129.48 38.1722C129.737 37.9036 129.908 37.5676 129.972 37.2055C130.036 36.8434 129.99 36.471 129.84 36.1341C129.689 35.7971 129.441 35.5103 129.126 35.3088C128.81 35.1073 128.441 35 128.064 35H49.0301C48.5002 35.0009 47.9762 35.1077 47.4904 35.3138C47.0047 35.52 46.5676 35.8211 46.2061 36.1985L29.5247 53.6183C29.2677 53.8866 29.0966 54.2223 29.0325 54.5839C28.9684 54.9456 29.0141 55.3177 29.1639 55.6545C29.3136 55.9913 29.5611 56.2781 29.8758 56.4799C30.1905 56.6817 30.5589 56.7896 30.9356 56.7905Z" fill="url(#paint0_linear_33_43)"/>
</g>
<defs>
<linearGradient id="paint0_linear_33_43" x1="37.5256" y1="125.097" x2="117.993" y2="31.9838" gradientUnits="userSpaceOnUse">
<stop offset="0.08" stop-color="#9945FF"/>
<stop offset="0.3" stop-color="#8752F3"/>
<stop offset="0.5" stop-color="#5497D5"/>
<stop offset="0.6" stop-color="#43B4CA"/>
<stop offset="0.72" stop-color="#28E0B9"/>
<stop offset="0.97" stop-color="#19FB9B"/>
</linearGradient>
<clipPath id="clip0_33_43">
<rect width="101" height="88" fill="white" transform="translate(29 35)"/>
</clipPath>
</defs>
</svg>
