<svg width="237" height="222" viewBox="0 0 237 222" fill="none" xmlns="http://www.w3.org/2000/svg">
<path d="M164.33 57.6901C159.122 57.6901 154.287 60.3904 151.558 64.8293L122.165 108.469C121.207 109.908 121.596 111.847 123.034 112.804C124.2 113.581 125.742 113.485 126.804 112.572L155.737 87.4767C156.218 87.044 156.959 87.0881 157.392 87.5688C157.588 87.7892 157.692 88.0736 157.692 88.3661V166.937C157.692 167.586 157.167 168.107 156.518 168.107C156.17 168.107 155.841 167.954 155.621 167.686L68.1602 62.9944C65.3117 59.6332 61.1292 57.6941 56.7263 57.6901H53.6695C45.3966 57.6901 38.6901 64.3966 38.6901 72.6695V183.33C38.6901 191.603 45.3966 198.31 53.6695 198.31C58.8777 198.31 63.7132 195.61 66.4415 191.171L95.8354 147.531C96.7929 146.092 96.4043 144.153 94.9661 143.196C93.8002 142.419 92.2578 142.515 91.1962 143.428L62.263 168.523C61.7822 168.956 61.0411 168.912 60.6084 168.431C60.4121 168.211 60.3079 167.926 60.3119 167.634V89.0431C60.3119 88.3941 60.8367 87.8733 61.4857 87.8733C61.8303 87.8733 62.1628 88.0255 62.3831 88.294L149.832 193.006C152.68 196.367 156.863 198.306 161.266 198.31H164.322C172.595 198.314 179.306 191.611 179.314 183.338V72.6695C179.314 64.3966 172.607 57.6901 164.334 57.6901H164.33Z" fill="black"/>
</svg>
