<svg width="150" height="150" viewBox="0 0 150 150" fill="none" xmlns="http://www.w3.org/2000/svg">
<g clip-path="url(#clip0_33_20)">
<path fill-rule="evenodd" clip-rule="evenodd" d="M39.14 78.79C38.24 79.43 37.09 79.61 36.05 79.25L33.01 78.21C31.8 77.8 31.15 76.48 31.56 75.26C31.79 74.58 32.33 74.04 33.01 73.81L36.05 72.77C37.84 72.16 39.78 73.11 40.39 74.9C40.88 76.33 40.37 77.91 39.14 78.79Z" fill="#0DFF81"/>
<path fill-rule="evenodd" clip-rule="evenodd" d="M38.47 104.26C37.98 103.41 38.21 102.33 39 101.76L46.08 96.66C47.33 95.76 49.08 96.04 49.99 97.29C50.05 97.37 50.1 97.45 50.14 97.53C50.91 98.86 50.46 100.57 49.13 101.34C49.13 101.34 49.13 101.34 49.12 101.34L48.86 101.47L40.91 105.05C40.02 105.45 38.96 105.11 38.47 104.26Z" fill="white"/>
<path fill-rule="evenodd" clip-rule="evenodd" d="M50.14 55.47C49.74 56.15 49.07 56.63 48.31 56.8C47.54 56.97 46.73 56.8 46.09 56.34L39.01 51.23C38.16 50.61 37.97 49.42 38.59 48.56C39.12 47.83 40.1 47.57 40.92 47.94L48.87 51.51C50.28 52.14 50.91 53.78 50.29 55.19C50.29 55.28 50.2 55.36 50.16 55.45" fill="white"/>
<path d="M57.3 114.86L56.5 138.65H34.16C27.91 138.65 22.85 133.58 22.84 127.33V122.27C34.72 122.29 46.48 119.76 57.3 114.86Z" fill="url(#paint0_linear_33_20)"/>
<path fill-rule="evenodd" clip-rule="evenodd" d="M117.47 104.26C116.98 105.11 115.93 105.45 115.03 105.05L107.08 101.47C105.68 100.85 105.04 99.21 105.67 97.8L105.81 97.52C106.57 96.19 108.27 95.72 109.6 96.48C109.6 96.48 109.62 96.49 109.63 96.5L109.87 96.65L116.95 101.75C117.74 102.32 117.97 103.4 117.48 104.25" fill="white"/>
<path fill-rule="evenodd" clip-rule="evenodd" d="M116.93 51.24L109.85 56.35C108.59 57.25 106.83 56.95 105.93 55.69L105.8 55.48C105.01 54.17 105.43 52.46 106.75 51.67C106.84 51.61 106.93 51.56 107.03 51.53L114.98 47.96C115.94 47.53 117.07 47.96 117.51 48.91C117.88 49.74 117.63 50.71 116.89 51.24" fill="white"/>
<path fill-rule="evenodd" clip-rule="evenodd" d="M125.46 76.01C125.46 77 124.83 77.89 123.89 78.21L120.84 79.25C119.04 79.84 117.12 78.85 116.53 77.06C115.95 75.3 116.89 73.39 118.64 72.78C119.35 72.54 120.12 72.54 120.84 72.78L123.89 73.82C124.83 74.14 125.46 75.02 125.46 76.02" fill="#B3D2FF"/>
<path d="M50.37 53.23C50.6 53.98 50.52 54.8 50.13 55.48C49.73 56.16 49.06 56.64 48.3 56.81C47.53 56.98 46.72 56.81 46.08 56.35L39 51.24C38.15 50.62 37.96 49.43 38.58 48.57C39.11 47.84 40.09 47.58 40.91 47.95L48.86 51.52C49.58 51.85 50.13 52.47 50.37 53.22M50.37 99.78C50.13 100.53 49.57 101.15 48.85 101.47L40.9 105.05C39.95 105.51 38.81 105.1 38.35 104.15C37.94 103.3 38.21 102.29 38.99 101.75L46.07 96.65C47.32 95.75 49.07 96.03 49.98 97.28C50.04 97.36 50.09 97.44 50.13 97.52C50.52 98.21 50.6 99.02 50.37 99.77M36.05 79.24L33.01 78.2C31.8 77.79 31.15 76.47 31.56 75.25C31.79 74.57 32.33 74.03 33.01 73.8L36.05 72.76C37.83 72.13 39.78 73.07 40.41 74.85C41.04 76.63 40.1 78.58 38.32 79.21C38.29 79.21 38.27 79.23 38.24 79.24C37.53 79.48 36.76 79.48 36.04 79.24M71.27 13.12H53.72C53.72 30.17 39.89 44 22.84 44.01V122.27C34.72 122.29 46.48 119.76 57.3 114.86L58.67 74.41C56.25 73.22 54.53 70.05 54.53 66.34C54.53 62.17 56.71 58.7 59.58 57.92C59.97 55.41 60.86 53 62.2 50.83C60.93 50.68 59.8 49.94 59.13 48.84C56.53 45.02 53.03 41.11 50.34 34.77C49.84 33.66 49.98 32.36 50.7 31.38C51.26 30.65 52.31 30.51 53.04 31.06C53.11 31.12 53.18 31.18 53.25 31.25C57.4 35.18 62.4 36.36 65.16 40.13C65.36 39.66 65.63 39.22 65.95 38.83C67.56 36.75 70.36 36.01 72.79 37.03C73.72 33.9 77.01 32.11 80.14 33.04C82.06 33.61 83.56 35.11 84.13 37.03C85.38 36.47 86.8 36.4 88.1 36.84C91.3 30.75 95.24 25.08 99.85 19.97C91.01 15.44 81.21 13.09 71.28 13.1" fill="url(#paint1_linear_33_20)"/>
<path fill-rule="evenodd" clip-rule="evenodd" d="M39.14 78.79C38.24 79.43 37.09 79.61 36.05 79.25L33.01 78.21C31.8 77.8 31.15 76.48 31.56 75.26C31.79 74.58 32.33 74.04 33.01 73.81L36.05 72.77C37.84 72.16 39.78 73.11 40.39 74.9C40.88 76.33 40.37 77.91 39.14 78.79Z" fill="#B3D2FF"/>
<path d="M123.89 78.21L120.84 79.25C119.04 79.84 117.12 78.85 116.53 77.06C115.95 75.3 116.89 73.39 118.64 72.78C119.35 72.54 120.12 72.54 120.84 72.78L123.89 73.82C125.1 74.23 125.75 75.55 125.34 76.77C125.11 77.45 124.57 77.99 123.89 78.22M117.46 104.27C116.97 105.12 115.92 105.46 115.02 105.06L107.07 101.48C105.67 100.86 105.03 99.22 105.66 97.81L105.8 97.53C106.56 96.2 108.26 95.73 109.59 96.49C109.59 96.49 109.61 96.5 109.62 96.51L109.86 96.66L116.94 101.76C117.73 102.33 117.96 103.41 117.47 104.26M105.55 53.23C105.79 52.48 106.35 51.86 107.07 51.54L115.02 47.97C115.98 47.54 117.11 47.97 117.55 48.92C117.92 49.75 117.67 50.72 116.93 51.25L109.85 56.36C108.59 57.26 106.83 56.96 105.93 55.7L105.8 55.49C105.4 54.81 105.3 53.98 105.54 53.23M105.22 23.11C103.47 21.98 101.68 20.94 99.82 19.99C95.22 25.1 91.27 30.77 88.07 36.86C89.2 37.22 90.2 37.91 90.93 38.85C91.25 39.25 91.51 39.69 91.72 40.15C94.31 36.61 98.86 35.81 102.85 32C103.65 31.17 104.93 31.04 105.88 31.7C106.09 31.84 106.27 32.01 106.41 32.22C106.94 32.9 107.05 33.82 106.69 34.61L106.58 34.88C103.91 41.09 100.42 45.04 97.84 48.85C97.17 49.96 96.02 50.69 94.73 50.84C96.05 53 96.93 55.41 97.3 57.93C99.89 58.64 101.9 61.5 102.28 65.11C102.33 65.52 102.35 65.94 102.35 66.35C102.35 69.84 100.82 72.85 98.62 74.18C98.49 74.27 98.35 74.35 98.21 74.42V75.02L100.12 131.61C120.92 120.82 133.97 99.33 133.97 75.9C133.99 54.56 123.16 34.68 105.23 23.12" fill="url(#paint2_linear_33_20)"/>
<path d="M90.38 72.33C91.08 73.59 91 75.13 90.17 76.31C87.45 80.28 83.64 83.3 78.79 83.3H77.76C73.57 82.94 69.17 80.2 66.44 76.9C65.43 75.67 65.29 73.95 66.09 72.57C67.16 70.79 67.72 68.75 67.72 66.68C67.72 64.73 67.24 62.81 66.33 61.09C65.64 59.84 65.73 58.31 66.54 57.15C66.75 57.43 66.99 57.68 67.26 57.9C69.24 59.45 72.01 59.49 74.03 58C74.03 60.17 76.22 61.92 78.9 61.92C79.14 61.94 79.39 61.94 79.64 61.92C81.99 61.63 83.78 60.01 83.78 58.04C85.83 59.57 88.66 59.52 90.65 57.9L90.92 57.66C91.28 58.73 91.15 59.9 90.57 60.86C89.51 62.63 88.96 64.65 88.97 66.71C88.97 68.68 89.46 70.61 90.4 72.34M106.43 32.21C106.29 32.01 106.11 31.83 105.9 31.69C104.96 31.05 103.7 31.18 102.91 31.99C98.92 35.81 94.32 36.59 91.78 40.14C91.57 39.68 91.3 39.24 90.99 38.84C90.25 37.91 89.26 37.22 88.13 36.85C86.83 36.41 85.41 36.48 84.16 37.04C83.23 33.91 79.94 32.12 76.81 33.05C74.89 33.62 73.39 35.12 72.82 37.04C70.4 36.02 67.59 36.75 65.98 38.84C65.65 39.23 65.39 39.67 65.19 40.14C62.43 36.37 57.44 35.19 53.28 31.26C52.67 30.57 51.62 30.51 50.93 31.12C50.93 31.12 50.93 31.12 50.92 31.13C50.83 31.2 50.76 31.29 50.69 31.38C49.96 32.36 49.82 33.66 50.33 34.77C53.01 41.1 56.52 45 59.12 48.84C59.79 49.95 60.94 50.68 62.22 50.83C60.88 52.99 60 55.4 59.6 57.92C56.74 58.7 54.55 62.17 54.55 66.34C54.55 70.05 56.28 73.22 58.69 74.41L57.32 114.86L56.52 138.65H71.28C81.21 138.67 91.01 136.31 99.85 131.78L100.18 131.6L98.28 75.01V74.41C98.42 74.34 98.56 74.26 98.69 74.17C100.9 72.84 102.42 69.83 102.42 66.34C102.42 65.93 102.4 65.51 102.35 65.1C101.97 61.49 99.95 58.63 97.37 57.92C96.99 55.4 96.1 52.99 94.75 50.83C96.04 50.69 97.19 49.95 97.86 48.84C100.44 45.02 103.92 41.08 106.6 34.87L106.71 34.6C107.07 33.82 106.97 32.89 106.43 32.21Z" fill="url(#paint3_linear_33_20)"/>
<path d="M53.72 13.12C53.72 30.17 39.89 44 22.84 44.01V24.44C22.84 18.19 27.91 13.13 34.16 13.12H53.73H53.72Z" fill="url(#paint4_linear_33_20)"/>
<path fill-rule="evenodd" clip-rule="evenodd" d="M84.12 67.75L80.94 70.67C80.67 70.93 80.47 71.26 80.38 71.62C80.17 72.46 79.76 74.11 79.43 75.68C79.32 76.12 78.92 76.42 78.48 76.41C78.03 76.42 77.63 76.12 77.53 75.68L76.52 71.62C76.43 71.25 76.23 70.92 75.96 70.67L72.78 67.75C72.41 67.38 72.41 66.78 72.78 66.4C72.99 66.18 73.29 66.07 73.59 66.1L78.36 66.75H78.62L78.99 66.7L83.39 66.1C83.79 66.06 84.17 66.27 84.34 66.63C84.52 67.01 84.43 67.46 84.12 67.74M88.89 66.67C88.91 64.62 89.48 62.61 90.55 60.85C91.11 59.89 91.22 58.74 90.86 57.69L90.64 57.89C88.65 59.46 85.84 59.48 83.82 57.95C83.82 59.9 82.04 61.54 79.68 61.81C79.44 61.83 79.19 61.83 78.94 61.81C76.26 61.81 74.07 60.05 74.07 57.89C72.05 59.42 69.25 59.4 67.25 57.83C66.98 57.61 66.74 57.35 66.53 57.08C65.72 58.25 65.63 59.78 66.32 61.02C67.25 62.76 67.73 64.7 67.71 66.67C67.71 68.72 67.17 70.74 66.12 72.5C65.33 73.88 65.47 75.6 66.47 76.83C69.21 80.12 73.59 82.87 77.79 83.23H78.82C83.67 83.23 87.48 80.21 90.2 76.24C90.99 75.07 91.05 73.55 90.36 72.32C89.42 70.59 88.93 68.65 88.93 66.69" fill="#B3D2FF"/>
<path fill-rule="evenodd" clip-rule="evenodd" d="M84.12 67.75L80.94 70.67C80.67 70.93 80.47 71.26 80.38 71.62C80.17 72.46 79.76 74.11 79.43 75.68C79.32 76.12 78.92 76.42 78.48 76.41C78.03 76.42 77.63 76.12 77.53 75.68L76.52 71.62C76.43 71.25 76.23 70.92 75.96 70.67L72.78 67.75C72.41 67.38 72.41 66.78 72.78 66.4C72.99 66.18 73.29 66.07 73.59 66.1L78.36 66.75H78.62L78.99 66.7L83.39 66.1C83.79 66.06 84.17 66.27 84.34 66.63C84.52 67.01 84.43 67.46 84.12 67.74" fill="#003580"/>
</g>
<defs>
<linearGradient id="paint0_linear_33_20" x1="43.22" y1="147.24" x2="40.86" y2="127.95" gradientUnits="userSpaceOnUse">
<stop offset="0.29" stop-color="#3A8BFF"/>
<stop offset="1" stop-color="#81B5FF"/>
</linearGradient>
<linearGradient id="paint1_linear_33_20" x1="73.68" y1="0.19001" x2="27.14" y2="120.09" gradientUnits="userSpaceOnUse">
<stop offset="0.29" stop-color="#0062EE"/>
<stop offset="1" stop-color="#00398A"/>
</linearGradient>
<linearGradient id="paint2_linear_33_20" x1="97.26" y1="137.85" x2="113.03" y2="47.75" gradientUnits="userSpaceOnUse">
<stop offset="0.29" stop-color="#0062EE"/>
<stop offset="1" stop-color="#00398A"/>
</linearGradient>
<linearGradient id="paint3_linear_33_20" x1="78.47" y1="168.32" x2="78.47" y2="84.64" gradientUnits="userSpaceOnUse">
<stop offset="0.29" stop-color="#B3D2FF"/>
<stop offset="1" stop-color="white"/>
</linearGradient>
<linearGradient id="paint4_linear_33_20" x1="56.03" y1="39.6" x2="26.9" y2="21.5" gradientUnits="userSpaceOnUse">
<stop offset="0.29" stop-color="#3A8BFF"/>
<stop offset="1" stop-color="#81B5FF"/>
</linearGradient>
<clipPath id="clip0_33_20">
<rect width="150" height="150" fill="white"/>
</clipPath>
</defs>
</svg>
